<svg xmlns="http://www.w3.org/2000/svg" width="96" height="112" viewBox="0 0 24 28" shape-rendering="crispEdges">
<path fill="#384742" d="M7 2h10v2H7zM5 4h14v2H5zM4 6h16v10H4zM6 16h12v3H6zM8 19h8v3H8zM6 22h12v3H6zM4 25h6v2H4zM14 25h6v2h-6z"/>
<path fill="#eef0d9" d="M7 3h10v2H7zM5 6h14v7H5zM7 13h10v5H7z"/>
<path fill="#e6b48b" d="M8 7h8v7H8zM6 11h2v3H6zM16 11h2v3h-2z"/>
<path fill="#384742" d="M8 9h2v2H8zM14 9h2v2h-2zM11 12h2v1h-2z"/>
<path fill="#ffffff" d="M7 14h10v2H7zM9 16h6v2H9z"/>
<path fill="#a4a2bc" d="M6 20h12v5H6z"/>
<path fill="#c18678" d="M4 21h2v4H4zM18 21h2v4h-2z"/>
</svg>
